<mxfile host="app.diagrams.net" modified="2023-09-25T09:02:50.501Z" agent="Mozilla/5.0 (Windows NT 10.0; Win64; x64) AppleWebKit/537.36 (KHTML, like Gecko) Chrome/116.0.0.0 Safari/537.36" etag="im5NRdw160q8LjyWZbKe" version="21.7.4" type="github">
  <diagram name="销售" id="8GNJ75QtfmzGKLr9Hj33">
    <mxGraphModel dx="1562" dy="913" grid="1" gridSize="10" guides="1" tooltips="1" connect="1" arrows="1" fold="1" page="1" pageScale="1" pageWidth="827" pageHeight="1169" math="0" shadow="0">
      <root>
        <mxCell id="0" />
        <mxCell id="1" parent="0" />
      </root>
    </mxGraphModel>
  </diagram>
</mxfile>
